<?xml version="1.0" standalone="no"?>
<!DOCTYPE svg PUBLIC "-//W3C//DTD SVG 20010904//EN"
 "http://www.w3.org/TR/2001/REC-SVG-20010904/DTD/svg10.dtd">
<svg version="1.0" xmlns="http://www.w3.org/2000/svg"
 width="2000.000000pt" height="1500.000000pt" viewBox="0 0 2000.000000 1500.000000"
 preserveAspectRatio="xMidYMid meet">

<g transform="translate(0.000000,1500.000000) scale(0.100000,-0.100000)"
fill="#000000" stroke="none">
<path d="M0 7500 l0 -7500 10000 0 10000 0 0 7500 0 7500 -10000 0 -10000 0 0
-7500z m10177 4980 c108 -26 195 -66 312 -144 142 -95 244 -190 699 -654 l413
-421 717 -4 c686 -3 721 -4 807 -24 202 -47 305 -101 420 -217 113 -114 179
-247 219 -441 33 -161 39 -315 32 -915 l-7 -585 459 -455 c484 -479 562 -568
649 -735 158 -306 128 -573 -100 -881 -28 -38 -266 -286 -530 -550 l-479 -482
7 -608 c8 -625 3 -778 -31 -939 -40 -194 -106 -327 -219 -441 -115 -116 -218
-169 -420 -217 -86 -20 -120 -21 -830 -24 l-740 -4 -505 -502 c-341 -339 -531
-520 -585 -559 -306 -216 -593 -234 -897 -57 -152 89 -235 164 -708 640 l-475
479 -715 3 c-685 3 -719 4 -805 24 -202 47 -305 101 -420 217 -122 123 -188
265 -231 501 -17 91 -19 160 -19 773 l0 673 -456 452 c-499 494 -570 576 -658
760 -64 132 -84 215 -84 342 0 189 72 361 231 555 25 30 253 263 506 518 l461
463 0 697 c0 636 2 706 19 797 43 236 109 378 231 501 115 116 218 169 420
217 86 20 120 21 830 24 l740 4 500 498 c275 273 532 520 570 548 236 172 448
227 672 173z"/>
<path d="M9886 12344 c-85 -20 -191 -74 -287 -145 -52 -38 -250 -227 -524
-500 l-440 -439 273 0 273 0 24 -25 c30 -30 31 -54 4 -89 l-20 -26 -347 0
-346 0 -251 -250 c-166 -165 -258 -250 -272 -250 -35 0 -73 38 -73 73 0 27 25
56 197 229 l197 198 -599 0 c-746 0 -816 -7 -1000 -95 -140 -67 -237 -178
-291 -334 -67 -191 -76 -335 -68 -994 l7 -528 212 210 c116 116 219 211 229
211 21 0 58 -19 68 -34 4 -6 8 -25 8 -41 0 -26 -35 -65 -260 -290 l-260 -260
0 -1487 0 -1488 1055 -1055 1056 -1055 363 0 363 0 21 -23 c27 -29 28 -57 3
-88 l-19 -24 -296 -5 -295 -5 417 -421 c490 -495 582 -570 785 -642 102 -36
252 -37 352 -3 183 62 261 126 770 632 l440 439 -296 0 c-285 0 -297 1 -323
21 -32 25 -34 66 -6 97 21 22 23 22 393 22 l372 0 240 240 c228 228 242 241
274 238 43 -4 77 -44 66 -79 -4 -13 -91 -108 -193 -212 l-186 -187 585 0 c352
0 629 4 694 11 127 13 255 47 340 92 84 44 193 155 232 237 102 213 116 357
107 1093 l-7 518 -227 -225 c-200 -200 -230 -226 -258 -226 -40 0 -72 30 -72
68 0 22 49 76 280 307 l280 280 0 1488 0 1489 -1055 1054 -1054 1054 -374 0
-374 0 -21 23 c-28 30 -28 68 1 95 22 21 31 22 325 24 l303 3 -428 431 c-455
458 -523 516 -689 595 -141 67 -269 84 -398 53z m-281 -3354 c220 -556 402
-1010 405 -1010 3 0 172 454 377 1008 l372 1007 485 3 c267 1 486 0 486 -2 0
-2 -16 -28 -36 -58 -52 -77 -200 -380 -271 -553 -34 -82 -189 -465 -344 -850
-155 -385 -328 -806 -384 -935 -588 -1351 -1048 -2178 -1403 -2522 -44 -43
-82 -78 -84 -78 -8 0 -842 291 -856 299 -8 4 39 48 130 121 357 288 585 581
803 1033 80 166 255 581 255 606 0 8 -288 671 -640 1472 -352 802 -640 1460
-640 1463 0 3 213 6 473 6 l472 -1 400 -1009z"/>
<path d="M11976 10884 c126 -130 553 -559 949 -952 l720 -716 8 410 c11 609 0
840 -50 1014 -51 179 -165 320 -315 389 -180 83 -260 91 -972 91 l-568 0 228
-236z"/>
<path d="M13788 8097 c-2 -425 -2 -1030 1 -1345 l6 -573 430 433 c443 445 500
512 566 652 44 93 59 159 59 255 0 103 -20 182 -72 288 -84 169 -185 283 -685
770 l-300 292 -5 -772z"/>
<path d="M5769 8393 c-430 -432 -494 -505 -564 -644 -88 -172 -88 -363 -1
-541 88 -177 185 -288 652 -744 l341 -333 5 767 c2 422 2 1027 -1 1345 l-6
578 -426 -428z"/>
<path d="M6336 5287 c-9 -706 6 -856 107 -1067 39 -82 148 -193 232 -237 87
-46 213 -79 345 -93 76 -7 306 -10 670 -8 l555 3 -730 734 c-401 403 -829 829
-951 947 l-221 213 -7 -492z"/>
</g>
</svg>
