<svg version="1.1" id="Layer_1" xmlns="http://www.w3.org/2000/svg" xmlns:xlink="http://www.w3.org/1999/xlink" x="0px" y="0px"
	 width="100%" viewBox="0 0 2000 1607" enable-background="new 0 0 2000 1607" xml:space="preserve">
<path fill="#4C6971" opacity="1.000000" stroke="none" 
	d="
M983.000000,1608.000000 
	C655.703430,1608.000000 328.406891,1608.000000 1.055166,1608.000000 
	C1.055166,1072.430298 1.055166,536.860596 1.055166,1.000000 
	C330.032684,1.000000 659.065430,1.000000 988.373901,1.369461 
	C976.047241,3.146574 964.219910,7.175327 952.867615,12.622542 
	C932.886230,22.210283 915.349243,35.372009 899.720337,50.898712 
	C851.012329,99.288132 802.545471,147.920441 754.083313,196.556396 
	C751.501709,199.147156 748.976807,200.076248 745.401062,200.071152 
	C677.741821,199.974609 610.082214,199.926315 542.423157,200.087967 
	C533.392883,200.109543 524.361023,201.268661 515.337646,201.996582 
	C499.320618,203.288681 483.863037,206.939697 468.937622,212.941238 
	C443.852112,223.028168 424.356476,239.562729 411.348572,263.314758 
	C396.491119,290.444122 390.531830,320.178253 390.280273,350.543427 
	C389.717560,418.461487 390.635498,486.392303 391.082489,554.317017 
	C391.107635,558.136475 389.901367,560.709045 387.243286,563.358459 
	C341.683472,608.769348 296.187256,654.244263 250.758011,699.785889 
	C238.563171,712.010925 227.606613,725.221252 218.408691,739.950439 
	C202.977646,764.661072 194.277695,790.836121 197.906830,820.408813 
	C199.532852,833.658752 203.233505,846.190125 208.705429,858.246277 
	C220.231262,883.640869 237.400467,905.108093 256.602997,924.919800 
	C273.843842,942.707703 291.973328,959.631042 309.551331,977.096252 
	C335.085999,1002.467224 360.289032,1028.176025 386.093048,1053.268188 
	C391.102386,1058.139282 391.269257,1063.118042 390.913879,1068.896973 
	C390.743256,1071.671387 390.042450,1074.429688 390.039886,1077.195679 
	C389.986938,1134.372192 389.825439,1191.549683 390.135681,1248.724487 
	C390.204224,1261.353027 391.673950,1274.006836 393.054993,1286.588013 
	C395.315033,1307.176147 401.266113,1326.740723 411.038452,1345.034302 
	C421.438782,1364.503418 436.523132,1379.406128 455.886047,1389.974609 
	C481.073303,1403.722046 508.665100,1408.434082 536.693054,1408.758301 
	C602.177246,1409.515625 667.676208,1409.044556 733.169006,1408.922485 
	C738.954346,1408.911621 743.047119,1409.965576 747.574219,1414.659546 
	C778.424988,1446.646362 809.801819,1478.128296 841.174744,1509.607910 
	C856.783813,1525.270020 872.566223,1540.770020 888.623596,1555.969971 
	C896.235474,1563.175659 904.426147,1569.837158 912.798889,1576.156372 
	C926.226257,1586.290649 940.546814,1595.104126 956.510681,1600.674683 
	C965.141541,1603.686523 974.157715,1605.594116 983.000000,1608.000000 
z"/>
<path fill="#4C6971" opacity="1.000000" stroke="none" 
	d="
M2000.000000,1608.000000 
	C1674.633911,1608.000000 1349.267822,1608.000000 1023.445068,1607.647461 
	C1022.978149,1606.825073 1022.967957,1606.355225 1023.162842,1605.554077 
	C1031.951782,1602.288940 1040.864746,1600.067139 1049.054688,1596.281128 
	C1069.629395,1586.769409 1087.354980,1572.984985 1103.337280,1557.078857 
	C1151.767334,1508.879639 1200.026001,1460.508057 1248.272949,1412.125244 
	C1250.580566,1409.811157 1252.852173,1408.931641 1256.076782,1408.935791 
	C1321.238403,1409.021362 1386.400024,1409.032593 1451.561768,1408.956421 
	C1459.160767,1408.947510 1466.755981,1408.226196 1474.358154,1408.027710 
	C1493.799683,1407.519897 1512.614014,1403.785156 1530.778931,1396.944336 
	C1556.894531,1387.109375 1577.182983,1370.250854 1590.647949,1345.695679 
	C1605.524170,1318.567139 1611.420776,1288.795776 1611.700073,1258.461182 
	C1612.325195,1190.542480 1611.364624,1122.608521 1610.917358,1054.681641 
	C1610.892212,1050.861328 1612.100586,1048.289429 1614.758057,1045.640625 
	C1660.319092,1000.227966 1705.782715,954.717712 1751.270020,909.231201 
	C1763.498291,897.002991 1774.308594,883.669861 1783.561890,869.020569 
	C1799.121216,844.388184 1807.728882,818.152771 1804.091797,788.579285 
	C1802.462402,775.330627 1798.734375,762.811951 1793.293457,750.739868 
	C1781.826050,725.295959 1764.608154,703.868896 1745.387695,684.065613 
	C1728.249756,666.408203 1710.244019,649.596558 1692.787476,632.244446 
	C1666.430542,606.045227 1640.183105,579.735291 1614.027954,553.335022 
	C1612.401489,551.693359 1611.235352,548.882751 1611.154419,546.570496 
	C1610.982422,541.656433 1611.950562,536.712769 1611.956543,531.780640 
	C1612.024658,475.285034 1612.180176,418.788269 1611.864258,362.294342 
	C1611.791870,349.331543 1610.253174,336.354462 1608.965576,323.426117 
	C1606.877563,302.460022 1600.887573,282.582306 1590.965088,263.980347 
	C1580.574829,244.501587 1565.499268,229.574524 1546.122437,219.036346 
	C1521.250122,205.509491 1494.058350,200.510971 1466.325317,200.225891 
	C1398.837524,199.532166 1331.337891,199.988388 1263.843018,200.036407 
	C1260.679810,200.038651 1257.956055,199.934677 1256.629883,196.336990 
	C1256.209229,195.195694 1254.867920,194.388336 1253.933350,193.442673 
	C1225.151123,164.319992 1196.535034,135.030334 1167.526001,106.135216 
	C1146.935913,85.625832 1125.985718,65.468864 1104.867676,45.502117 
	C1091.993164,33.329590 1077.331055,23.342140 1061.531372,15.433567 
	C1051.471924,10.398273 1040.513184,7.159223 1029.966064,2.762306 
	C1029.982910,1.939917 1029.991455,1.469959 1030.000000,1.000001 
	C1353.032715,1.000000 1676.065430,1.000000 1999.701904,1.180243 
	C2000.519531,1.592694 2000.750977,1.805865 2001.000000,2.000000 
	C2001.000000,536.699402 2001.000000,1071.398804 2000.819824,1606.701904 
	C2000.407593,1607.519653 2000.194336,1607.751099 2000.000000,1608.000000 
z"/>
<path fill="#FFFFFF" opacity="1.000000" stroke="none" 
	d="
M1029.957764,3.114738 
	C1040.513184,7.159223 1051.471924,10.398273 1061.531372,15.433567 
	C1077.331055,23.342140 1091.993164,33.329590 1104.867676,45.502117 
	C1125.985718,65.468864 1146.935913,85.625832 1167.526001,106.135216 
	C1196.535034,135.030334 1225.151123,164.319992 1253.933350,193.442673 
	C1254.867920,194.388336 1256.209229,195.195694 1256.629883,196.336990 
	C1257.956055,199.934677 1260.679810,200.038651 1263.843018,200.036407 
	C1331.337891,199.988388 1398.837524,199.532166 1466.325317,200.225891 
	C1494.058350,200.510971 1521.250122,205.509491 1546.122437,219.036346 
	C1565.499268,229.574524 1580.574829,244.501587 1590.965088,263.980347 
	C1600.887573,282.582306 1606.877563,302.460022 1608.965576,323.426117 
	C1610.253174,336.354462 1611.791870,349.331543 1611.864258,362.294342 
	C1612.180176,418.788269 1612.024658,475.285034 1611.956543,531.780640 
	C1611.950562,536.712769 1610.982422,541.656433 1611.154419,546.570496 
	C1611.235352,548.882751 1612.401489,551.693359 1614.027954,553.335022 
	C1640.183105,579.735291 1666.430542,606.045227 1692.787476,632.244446 
	C1710.244019,649.596558 1728.249756,666.408203 1745.387695,684.065613 
	C1764.608154,703.868896 1781.826050,725.295959 1793.293457,750.739868 
	C1798.734375,762.811951 1802.462402,775.330627 1804.091797,788.579285 
	C1807.728882,818.152771 1799.121216,844.388184 1783.561890,869.020569 
	C1774.308594,883.669861 1763.498291,897.002991 1751.270020,909.231201 
	C1705.782715,954.717712 1660.319092,1000.227966 1614.758057,1045.640625 
	C1612.100586,1048.289429 1610.892212,1050.861328 1610.917358,1054.681641 
	C1611.364624,1122.608521 1612.325195,1190.542480 1611.700073,1258.461182 
	C1611.420776,1288.795776 1605.524170,1318.567139 1590.647949,1345.695679 
	C1577.182983,1370.250854 1556.894531,1387.109375 1530.778931,1396.944336 
	C1512.614014,1403.785156 1493.799683,1407.519897 1474.358154,1408.027710 
	C1466.755981,1408.226196 1459.160767,1408.947510 1451.561768,1408.956421 
	C1386.400024,1409.032593 1321.238403,1409.021362 1256.076782,1408.935791 
	C1252.852173,1408.931641 1250.580566,1409.811157 1248.272949,1412.125244 
	C1200.026001,1460.508057 1151.767334,1508.879639 1103.337280,1557.078857 
	C1087.354980,1572.984985 1069.629395,1586.769409 1049.054688,1596.281128 
	C1040.864746,1600.067139 1031.951782,1602.288940 1022.750244,1605.602661 
	C1019.088379,1606.654907 1016.044189,1607.327393 1013.000000,1608.000000 
	C1003.312439,1608.000000 993.624878,1608.000000 983.468628,1608.000000 
	C974.157715,1605.594116 965.141541,1603.686523 956.510681,1600.674683 
	C940.546814,1595.104126 926.226257,1586.290649 912.798889,1576.156372 
	C904.426147,1569.837158 896.235474,1563.175659 888.623596,1555.969971 
	C872.566223,1540.770020 856.783813,1525.270020 841.174744,1509.607910 
	C809.801819,1478.128296 778.424988,1446.646362 747.574219,1414.659546 
	C743.047119,1409.965576 738.954346,1408.911621 733.169006,1408.922485 
	C667.676208,1409.044556 602.177246,1409.515625 536.693054,1408.758301 
	C508.665100,1408.434082 481.073303,1403.722046 455.886047,1389.974609 
	C436.523132,1379.406128 421.438782,1364.503418 411.038452,1345.034302 
	C401.266113,1326.740723 395.315033,1307.176147 393.054993,1286.588013 
	C391.673950,1274.006836 390.204224,1261.353027 390.135681,1248.724487 
	C389.825439,1191.549683 389.986938,1134.372192 390.039886,1077.195679 
	C390.042450,1074.429688 390.743256,1071.671387 390.913879,1068.896973 
	C391.269257,1063.118042 391.102386,1058.139282 386.093048,1053.268188 
	C360.289032,1028.176025 335.085999,1002.467224 309.551331,977.096252 
	C291.973328,959.631042 273.843842,942.707703 256.602997,924.919800 
	C237.400467,905.108093 220.231262,883.640869 208.705429,858.246277 
	C203.233505,846.190125 199.532852,833.658752 197.906830,820.408813 
	C194.277695,790.836121 202.977646,764.661072 218.408691,739.950439 
	C227.606613,725.221252 238.563171,712.010925 250.758011,699.785889 
	C296.187256,654.244263 341.683472,608.769348 387.243286,563.358459 
	C389.901367,560.709045 391.107635,558.136475 391.082489,554.317017 
	C390.635498,486.392303 389.717560,418.461487 390.280273,350.543427 
	C390.531830,320.178253 396.491119,290.444122 411.348572,263.314758 
	C424.356476,239.562729 443.852112,223.028168 468.937622,212.941238 
	C483.863037,206.939697 499.320618,203.288681 515.337646,201.996582 
	C524.361023,201.268661 533.392883,200.109543 542.423157,200.087967 
	C610.082214,199.926315 677.741821,199.974609 745.401062,200.071152 
	C748.976807,200.076248 751.501709,199.147156 754.083313,196.556396 
	C802.545471,147.920441 851.012329,99.288132 899.720337,50.898712 
	C915.349243,35.372009 932.886230,22.210283 952.867615,12.622542 
	C964.219910,7.175327 976.047241,3.146574 988.824768,1.369461 
	C998.687561,1.000000 1008.375122,1.000000 1018.707031,1.369774 
	C1022.886841,2.197945 1026.422363,2.656341 1029.957764,3.114738 
M1117.000000,88.499977 
	C1108.343750,80.512802 1099.706177,72.505211 1091.027100,64.543045 
	C1076.459961,51.179512 1060.282227,40.043568 1042.193970,32.188038 
	C1021.516724,23.208118 1000.098938,20.788603 978.089966,27.894682 
	C953.473816,35.842545 933.263000,50.817036 915.231384,68.517189 
	C872.299744,110.659721 830.018433,153.464798 787.488892,196.016708 
	C786.527588,196.978577 785.738770,198.112808 784.182068,200.000000 
	C787.106995,200.000000 788.878906,200.000000 790.650818,200.000000 
	C815.815613,200.000031 840.980347,199.979492 866.145142,200.013397 
	C873.163635,200.022858 878.071045,204.924652 877.999512,211.662292 
	C877.924438,218.731918 873.448364,222.996994 866.068115,222.997986 
	C832.403992,223.002563 798.739746,223.040955 765.075928,222.934204 
	C761.850098,222.923981 759.574158,223.805328 757.270691,226.124619 
	C733.078979,250.482147 708.770813,274.724121 684.488647,298.991821 
	C679.206116,304.271240 671.929382,304.506378 667.091187,299.583771 
	C662.274963,294.683502 662.600159,287.925934 667.944824,282.576263 
	C685.848450,264.656158 703.763367,246.747437 721.667358,228.827728 
	C722.899841,227.594177 724.078003,226.306381 726.455627,223.811905 
	C722.964966,223.429581 721.003967,223.028366 719.042786,223.027161 
	C664.213562,222.993332 609.383911,222.885574 554.555481,223.090454 
	C542.690857,223.134781 530.816895,224.145676 518.971863,225.038849 
	C505.592621,226.047729 492.731262,229.252090 480.059570,233.836121 
	C450.915649,244.379028 432.927765,265.490967 423.229462,293.906036 
	C415.561981,316.371063 413.005798,339.867645 413.001556,363.600067 
	C412.995453,397.764160 412.879211,431.928833 413.043060,466.092133 
	C413.149811,488.357666 413.665466,510.621277 414.028168,532.885254 
	C414.039612,533.587524 414.384766,534.284241 414.730560,535.559875 
	C416.476288,533.901489 417.803986,532.694641 419.071655,531.427734 
	C438.521545,511.990051 457.962006,492.542969 477.408600,473.101990 
	C483.023621,467.488586 489.685394,467.180664 494.772797,472.282928 
	C499.833344,477.358246 499.483398,484.009674 493.844086,489.648926 
	C468.390472,515.102478 442.975891,540.595337 417.413971,565.939636 
	C414.807861,568.523560 413.931183,571.076233 413.932983,574.636597 
	C414.010681,730.458191 414.010956,886.279785 413.934021,1042.101440 
	C413.932159,1045.823730 414.822662,1048.526489 417.586334,1051.225342 
	C441.753693,1074.825439 465.921783,1098.428955 489.779175,1122.341309 
	C557.188843,1189.905884 624.440857,1257.627563 691.778137,1325.264282 
	C710.708313,1344.278809 729.767700,1363.164917 748.635864,1382.240479 
	C751.274414,1384.908081 753.856140,1386.103394 757.677429,1386.087769 
	C793.674133,1385.940063 829.671875,1386.061646 865.668701,1385.929321 
	C870.707336,1385.910767 873.987000,1388.099976 875.669922,1392.400269 
	C879.069763,1401.088013 873.450989,1408.969482 864.011292,1408.984741 
	C837.013367,1409.028198 810.015320,1408.989746 783.017334,1409.022217 
	C781.146484,1409.024536 779.276001,1409.343506 776.651611,1409.584351 
	C783.345093,1416.838867 789.201355,1423.547485 795.437195,1429.882446 
	C824.628357,1459.537964 853.838867,1489.175781 883.234863,1518.627686 
	C891.873413,1527.282593 901.048096,1535.413208 910.145203,1543.597168 
	C926.026794,1557.884155 943.324463,1570.004395 963.280090,1578.079590 
	C987.989197,1588.078125 1012.283752,1587.068970 1036.477417,1576.202759 
	C1056.213745,1567.338623 1072.913696,1554.097534 1088.082397,1539.178711 
	C1130.142090,1497.812012 1171.638916,1455.872803 1213.329712,1414.131348 
	C1214.642822,1412.816528 1215.643066,1411.189209 1217.336792,1409.000000 
	C1214.655029,1409.000000 1213.033936,1409.000000 1211.412842,1409.000000 
	C1183.748291,1409.000000 1156.083618,1409.010986 1128.419067,1408.993286 
	C1120.025269,1408.987915 1115.977417,1404.925049 1116.000122,1396.647095 
	C1116.019775,1389.487183 1119.989380,1386.002197 1128.156860,1386.001465 
	C1164.320801,1385.998169 1200.484863,1385.954224 1236.648438,1386.074463 
	C1240.063477,1386.085815 1242.463867,1385.183716 1244.898926,1382.728149 
	C1268.133789,1359.299072 1291.501709,1336.001831 1314.830078,1312.665405 
	C1318.115479,1309.379150 1321.803589,1306.996582 1326.694092,1308.316772 
	C1336.240845,1310.893799 1338.904907,1321.526123 1331.750854,1328.718872 
	C1314.122559,1346.442505 1296.412598,1364.084961 1278.739624,1381.764282 
	C1277.558350,1382.945923 1276.410034,1384.160400 1274.625000,1386.000000 
	C1277.685913,1386.000000 1279.516479,1386.000000 1281.347046,1386.000000 
	C1336.509521,1386.000000 1391.673340,1386.200073 1446.833740,1385.863281 
	C1461.130981,1385.776123 1475.440674,1384.257935 1489.703247,1382.945679 
	C1505.406982,1381.500732 1520.156616,1376.729614 1534.188843,1369.438965 
	C1555.326538,1358.456299 1568.902588,1341.175659 1577.010376,1319.205322 
	C1585.671875,1295.734619 1588.738403,1271.292603 1588.952881,1246.451416 
	C1589.167236,1221.621826 1589.126953,1196.787964 1588.968262,1171.957642 
	C1588.765137,1140.193115 1588.335449,1108.429932 1587.977905,1076.666504 
	C1587.968140,1075.794556 1587.664185,1074.925903 1587.497437,1074.055786 
	C1586.915039,1073.627686 1586.332642,1073.199585 1585.750244,1072.771484 
	C1584.820312,1074.357910 1584.173584,1076.226196 1582.918091,1077.488770 
	C1561.530029,1098.994629 1540.067993,1120.426636 1518.619019,1141.871826 
	C1513.314331,1147.175537 1506.006714,1147.520264 1501.217407,1142.706665 
	C1496.420898,1137.885620 1496.816284,1130.690063 1502.184937,1125.320068 
	C1529.520752,1097.977661 1556.823486,1070.601929 1584.252808,1043.353638 
	C1586.920288,1040.703613 1588.088135,1038.117188 1588.083130,1034.306885 
	C1587.973877,951.949524 1588.000000,869.591980 1588.000000,787.234436 
	C1588.000000,713.573303 1587.974854,639.912109 1588.078735,566.251160 
	C1588.083618,562.799866 1587.091797,560.431580 1584.652954,558.034119 
	C1555.691406,529.563904 1526.667847,501.153473 1497.977539,472.411133 
	C1439.970337,414.298981 1382.178711,355.971649 1324.255737,297.775238 
	C1300.390747,273.797516 1276.460327,249.884094 1252.399536,226.103622 
	C1250.664062,224.388489 1247.618286,223.141418 1245.174683,223.129196 
	C1208.011719,222.943314 1170.847412,223.032501 1133.683960,222.922256 
	C1131.363647,222.915375 1128.712158,222.309448 1126.798096,221.076599 
	C1122.831299,218.521805 1120.942871,212.477081 1122.218872,208.440536 
	C1123.875244,203.201324 1128.304932,200.010925 1134.102905,200.007568 
	C1162.600830,199.991043 1191.098633,200.000015 1219.596558,199.999985 
	C1221.336670,199.999985 1223.076782,200.000000 1224.816895,200.000000 
	C1225.033447,199.544312 1225.250000,199.088638 1225.466553,198.632950 
	C1189.477661,162.088623 1153.488892,125.544296 1117.000000,88.499977 
M413.000000,1221.500000 
	C413.046783,1241.673096 412.726318,1261.816895 415.862610,1281.897827 
	C418.902222,1301.359619 423.627930,1320.070312 433.624573,1337.269775 
	C442.765808,1352.997314 455.996246,1364.174072 472.096222,1371.865845 
	C494.205750,1382.428345 518.139038,1385.602417 542.223206,1385.827759 
	C599.382019,1386.363037 656.549316,1386.000000 713.713135,1386.000000 
	C715.286804,1386.000000 716.860413,1386.000000 719.316833,1386.000000 
	C717.933838,1384.520996 717.298767,1383.812500 716.632935,1383.134155 
	C698.573242,1364.735229 680.614929,1346.235229 662.425415,1327.965332 
	C628.046265,1293.434204 593.595215,1258.974243 559.061890,1224.597290 
	C512.798340,1178.543213 466.428070,1132.596436 420.104187,1086.603027 
	C419.158112,1085.663696 418.242737,1084.691650 417.268280,1083.782959 
	C416.387665,1082.961792 415.445526,1082.206543 414.530518,1081.422119 
	C414.020325,1081.542725 413.510162,1081.663330 413.000000,1081.783936 
	C413.000000,1128.022583 413.000000,1174.261353 413.000000,1221.500000 
M1739.464844,712.949890 
	C1734.919800,707.743958 1730.632324,702.282349 1725.773315,697.388184 
	C1717.007324,688.558594 1707.778320,680.190063 1698.957520,671.413208 
	C1673.212524,645.796570 1647.595093,620.051880 1621.865967,594.419250 
	C1618.658569,591.223938 1615.080322,588.401001 1610.985840,584.800476 
	C1610.985840,728.758118 1610.985840,871.819763 1610.985840,1016.093811 
	C1612.865601,1014.438110 1613.629517,1013.840393 1614.307617,1013.157410 
	C1656.877563,970.277283 1699.543335,927.491150 1741.945068,884.445007 
	C1755.558960,870.624268 1766.588623,854.869080 1774.064087,836.783936 
	C1781.429077,818.966309 1784.132202,800.791809 1779.408936,781.781799 
	C1772.804688,755.201782 1757.840698,733.506775 1739.464844,712.949890 
M279.995453,915.493408 
	C316.669128,951.604309 353.342804,987.715271 391.152344,1024.944702 
	C391.152344,880.088562 391.152344,736.824036 391.152344,593.559570 
	C390.656952,593.345825 390.161560,593.132080 389.666168,592.918335 
	C388.546112,594.343628 387.558746,595.901489 386.286774,597.175110 
	C349.321777,634.187683 312.330811,671.174316 275.338226,708.159302 
	C259.853455,723.640930 245.061584,739.658875 234.406052,759.044495 
	C224.639862,776.812195 218.672424,795.267883 220.851151,816.023071 
	C222.650803,833.167236 229.072678,848.443909 237.596786,862.976501 
	C248.964996,882.357910 264.287689,898.648315 279.995453,915.493408 
M1379.000000,320.500031 
	C1448.364258,389.589539 1517.728394,458.679077 1587.515625,528.189880 
	C1588.044434,519.306763 1588.907227,511.282806 1588.935181,503.255981 
	C1589.076294,462.765656 1588.977417,422.274536 1589.010132,381.783752 
	C1589.025024,363.437195 1588.885254,345.155762 1586.152344,326.897980 
	C1583.206543,307.217529 1578.200684,288.408661 1568.039673,271.149963 
	C1559.105347,255.974564 1546.264771,244.998199 1530.672119,237.401718 
	C1508.789307,226.740738 1485.023315,223.457214 1461.140259,223.201263 
	C1403.326782,222.581711 1345.501953,222.998108 1287.681763,223.011505 
	C1286.291870,223.011841 1284.901978,223.183441 1283.111450,223.301605 
	C1315.188721,255.819382 1346.844360,287.909698 1379.000000,320.500031 
z"/>
<path fill="#4C6971" opacity="1.000000" stroke="none" 
	d="
M1029.966064,2.762306 
	C1026.422363,2.656341 1022.886841,2.197945 1019.175659,1.369774 
	C1022.361267,1.000000 1025.722534,1.000000 1029.541992,1.000001 
	C1029.991455,1.469959 1029.982910,1.939917 1029.966064,2.762306 
z"/>
<path fill="#4C6971" opacity="1.000000" stroke="none" 
	d="
M1013.454102,1608.000000 
	C1016.044189,1607.327393 1019.088379,1606.654907 1022.545227,1605.933838 
	C1022.967957,1606.355225 1022.978149,1606.825073 1022.994141,1607.647461 
	C1019.969421,1608.000000 1016.938782,1608.000000 1013.454102,1608.000000 
z"/>
<path fill="#4C6971" opacity="1.000000" stroke="none" 
	d="
M2001.000000,1.500000 
	C2000.750977,1.805865 2000.519531,1.592694 2000.152832,1.180243 
	C2000.333374,1.000000 2000.666626,1.000000 2001.000000,1.500000 
z"/>
<path fill="#4C6971" opacity="1.000000" stroke="none" 
	d="
M2000.500000,1608.000000 
	C2000.194336,1607.751099 2000.407593,1607.519653 2000.819824,1607.152832 
	C2001.000000,1607.333374 2001.000000,1607.666626 2000.500000,1608.000000 
z"/>
<path fill="#4C6971" opacity="1.000000" stroke="none" 
	d="
M1117.250000,88.749969 
	C1153.488892,125.544296 1189.477661,162.088623 1225.466553,198.632950 
	C1225.250000,199.088638 1225.033447,199.544312 1224.816895,200.000000 
	C1223.076782,200.000000 1221.336670,199.999985 1219.596558,199.999985 
	C1191.098633,200.000015 1162.600830,199.991043 1134.102905,200.007568 
	C1128.304932,200.010925 1123.875244,203.201324 1122.218872,208.440536 
	C1120.942871,212.477081 1122.831299,218.521805 1126.798096,221.076599 
	C1128.712158,222.309448 1131.363647,222.915375 1133.683960,222.922256 
	C1170.847412,223.032501 1208.011719,222.943314 1245.174683,223.129196 
	C1247.618286,223.141418 1250.664062,224.388489 1252.399536,226.103622 
	C1276.460327,249.884094 1300.390747,273.797516 1324.255737,297.775238 
	C1382.178711,355.971649 1439.970337,414.298981 1497.977539,472.411133 
	C1526.667847,501.153473 1555.691406,529.563904 1584.652954,558.034119 
	C1587.091797,560.431580 1588.083618,562.799866 1588.078735,566.251160 
	C1587.974854,639.912109 1588.000000,713.573303 1588.000000,787.234436 
	C1588.000000,869.591980 1587.973877,951.949524 1588.083130,1034.306885 
	C1588.088135,1038.117188 1586.920288,1040.703613 1584.252808,1043.353638 
	C1556.823486,1070.601929 1529.520752,1097.977661 1502.184937,1125.320068 
	C1496.816284,1130.690063 1496.420898,1137.885620 1501.217407,1142.706665 
	C1506.006714,1147.520264 1513.314331,1147.175537 1518.619019,1141.871826 
	C1540.067993,1120.426636 1561.530029,1098.994629 1582.918091,1077.488770 
	C1584.173584,1076.226196 1584.820312,1074.357910 1585.750244,1072.771484 
	C1586.332642,1073.199585 1586.915039,1073.627686 1587.497437,1074.055786 
	C1587.664185,1074.925903 1587.968140,1075.794556 1587.977905,1076.666504 
	C1588.335449,1108.429932 1588.765137,1140.193115 1588.968262,1171.957642 
	C1589.126953,1196.787964 1589.167236,1221.621826 1588.952881,1246.451416 
	C1588.738403,1271.292603 1585.671875,1295.734619 1577.010376,1319.205322 
	C1568.902588,1341.175659 1555.326538,1358.456299 1534.188843,1369.438965 
	C1520.156616,1376.729614 1505.406982,1381.500732 1489.703247,1382.945679 
	C1475.440674,1384.257935 1461.130981,1385.776123 1446.833740,1385.863281 
	C1391.673340,1386.200073 1336.509521,1386.000000 1281.347046,1386.000000 
	C1279.516479,1386.000000 1277.685913,1386.000000 1274.625000,1386.000000 
	C1276.410034,1384.160400 1277.558350,1382.945923 1278.739624,1381.764282 
	C1296.412598,1364.084961 1314.122559,1346.442505 1331.750854,1328.718872 
	C1338.904907,1321.526123 1336.240845,1310.893799 1326.694092,1308.316772 
	C1321.803589,1306.996582 1318.115479,1309.379150 1314.830078,1312.665405 
	C1291.501709,1336.001831 1268.133789,1359.299072 1244.898926,1382.728149 
	C1242.463867,1385.183716 1240.063477,1386.085815 1236.648438,1386.074463 
	C1200.484863,1385.954224 1164.320801,1385.998169 1128.156860,1386.001465 
	C1119.989380,1386.002197 1116.019775,1389.487183 1116.000122,1396.647095 
	C1115.977417,1404.925049 1120.025269,1408.987915 1128.419067,1408.993286 
	C1156.083618,1409.010986 1183.748291,1409.000000 1211.412842,1409.000000 
	C1213.033936,1409.000000 1214.655029,1409.000000 1217.336792,1409.000000 
	C1215.643066,1411.189209 1214.642822,1412.816528 1213.329712,1414.131348 
	C1171.638916,1455.872803 1130.142090,1497.812012 1088.082397,1539.178711 
	C1072.913696,1554.097534 1056.213745,1567.338623 1036.477417,1576.202759 
	C1012.283752,1587.068970 987.989197,1588.078125 963.280090,1578.079590 
	C943.324463,1570.004395 926.026794,1557.884155 910.145203,1543.597168 
	C901.048096,1535.413208 891.873413,1527.282593 883.234863,1518.627686 
	C853.838867,1489.175781 824.628357,1459.537964 795.437195,1429.882446 
	C789.201355,1423.547485 783.345093,1416.838867 776.651611,1409.584351 
	C779.276001,1409.343506 781.146484,1409.024536 783.017334,1409.022217 
	C810.015320,1408.989746 837.013367,1409.028198 864.011292,1408.984741 
	C873.450989,1408.969482 879.069763,1401.088013 875.669922,1392.400269 
	C873.987000,1388.099976 870.707336,1385.910767 865.668701,1385.929321 
	C829.671875,1386.061646 793.674133,1385.940063 757.677429,1386.087769 
	C753.856140,1386.103394 751.274414,1384.908081 748.635864,1382.240479 
	C729.767700,1363.164917 710.708313,1344.278809 691.778137,1325.264282 
	C624.440857,1257.627563 557.188843,1189.905884 489.779175,1122.341309 
	C465.921783,1098.428955 441.753693,1074.825439 417.586334,1051.225342 
	C414.822662,1048.526489 413.932159,1045.823730 413.934021,1042.101440 
	C414.010956,886.279785 414.010681,730.458191 413.932983,574.636597 
	C413.931183,571.076233 414.807861,568.523560 417.413971,565.939636 
	C442.975891,540.595337 468.390472,515.102478 493.844086,489.648926 
	C499.483398,484.009674 499.833344,477.358246 494.772797,472.282928 
	C489.685394,467.180664 483.023621,467.488586 477.408600,473.101990 
	C457.962006,492.542969 438.521545,511.990051 419.071655,531.427734 
	C417.803986,532.694641 416.476288,533.901489 414.730560,535.559875 
	C414.384766,534.284241 414.039612,533.587524 414.028168,532.885254 
	C413.665466,510.621277 413.149811,488.357666 413.043060,466.092133 
	C412.879211,431.928833 412.995453,397.764160 413.001556,363.600067 
	C413.005798,339.867645 415.561981,316.371063 423.229462,293.906036 
	C432.927765,265.490967 450.915649,244.379028 480.059570,233.836121 
	C492.731262,229.252090 505.592621,226.047729 518.971863,225.038849 
	C530.816895,224.145676 542.690857,223.134781 554.555481,223.090454 
	C609.383911,222.885574 664.213562,222.993332 719.042786,223.027161 
	C721.003967,223.028366 722.964966,223.429581 726.455627,223.811905 
	C724.078003,226.306381 722.899841,227.594177 721.667358,228.827728 
	C703.763367,246.747437 685.848450,264.656158 667.944824,282.576263 
	C662.600159,287.925934 662.274963,294.683502 667.091187,299.583771 
	C671.929382,304.506378 679.206116,304.271240 684.488647,298.991821 
	C708.770813,274.724121 733.078979,250.482147 757.270691,226.124619 
	C759.574158,223.805328 761.850098,222.923981 765.075928,222.934204 
	C798.739746,223.040955 832.403992,223.002563 866.068115,222.997986 
	C873.448364,222.996994 877.924438,218.731918 877.999512,211.662292 
	C878.071045,204.924652 873.163635,200.022858 866.145142,200.013397 
	C840.980347,199.979492 815.815613,200.000031 790.650818,200.000000 
	C788.878906,200.000000 787.106995,200.000000 784.182068,200.000000 
	C785.738770,198.112808 786.527588,196.978577 787.488892,196.016708 
	C830.018433,153.464798 872.299744,110.659721 915.231384,68.517189 
	C933.263000,50.817036 953.473816,35.842545 978.089966,27.894682 
	C1000.098938,20.788603 1021.516724,23.208118 1042.193970,32.188038 
	C1060.282227,40.043568 1076.459961,51.179512 1091.027100,64.543045 
	C1099.706177,72.505211 1108.343750,80.512802 1117.250000,88.749969 
M1013.503357,697.997559 
	C1010.103577,707.384888 1006.703796,716.772156 1002.850647,727.411255 
	C999.299072,718.207153 996.398132,710.457642 993.328857,702.775391 
	C981.275208,672.605164 969.078918,642.491699 957.105225,612.289856 
	C943.459106,577.869568 930.035950,543.360840 916.438171,508.921234 
	C902.958557,474.781097 889.382141,440.679199 875.848206,406.560516 
	C874.628967,403.486938 872.973938,401.863434 869.059387,401.878754 
	C821.397339,402.065399 773.734314,402.000000 726.071533,402.000000 
	C724.477600,402.000000 722.883728,402.000000 720.575989,402.000000 
	C725.493469,412.906036 730.195618,423.058197 734.669006,433.310181 
	C745.852783,458.941040 756.865479,484.646698 768.077698,510.265045 
	C775.840149,528.001343 783.904358,545.605347 791.682434,563.334900 
	C801.937744,586.711121 811.969727,610.185486 822.239563,633.555237 
	C830.290894,651.876526 838.634399,670.069397 846.709778,688.380249 
	C857.142944,712.037537 867.417542,735.764648 877.801147,759.443848 
	C884.138184,773.895142 890.607422,788.288574 896.918030,802.751282 
	C906.020813,823.613342 914.654663,844.691895 924.298279,865.299255 
	C927.504333,872.150391 927.469299,878.076355 924.777649,884.526611 
	C919.582031,896.977478 914.495361,909.478821 909.020752,921.807068 
	C899.389587,943.495850 889.888184,965.256348 879.614502,986.641846 
	C868.663757,1009.436584 855.736206,1031.210083 840.632263,1051.482422 
	C828.987061,1067.112427 816.379761,1082.072266 803.517151,1096.730591 
	C795.993042,1105.305054 787.339539,1112.939331 778.806641,1120.563110 
	C770.493713,1127.990234 761.709106,1134.891602 753.089905,1141.973022 
	C746.797607,1147.142700 740.437744,1152.230225 733.563232,1157.795166 
	C780.957397,1174.287720 827.694214,1190.551514 875.469482,1207.176636 
	C884.886047,1197.385864 895.262451,1187.786011 904.209656,1177.000732 
	C916.081909,1162.689453 927.444885,1147.865845 937.912842,1132.503418 
	C949.636047,1115.298828 960.560242,1097.505005 971.024292,1079.498169 
	C984.774780,1055.835938 998.472839,1032.089478 1010.866333,1007.704651 
	C1029.864258,970.325439 1047.912720,932.458191 1066.005615,894.626587 
	C1076.257690,873.189941 1086.037354,851.517761 1095.595703,829.761047 
	C1109.655396,797.758118 1123.509277,765.661743 1137.105591,733.459351 
	C1147.658081,708.465637 1157.738037,683.271362 1167.923828,658.123962 
	C1176.033203,638.103271 1183.959717,618.008545 1192.014404,597.965576 
	C1199.586182,579.123962 1207.136841,560.273193 1214.846191,541.487793 
	C1224.468872,518.039917 1233.869263,494.489410 1244.088501,471.301849 
	C1250.723145,456.247589 1258.420532,441.642365 1266.083008,427.067902 
	C1270.508911,418.649872 1275.811646,410.692871 1280.930542,402.177429 
	C1279.437134,402.111694 1278.169800,402.007751 1276.902466,402.007233 
	C1253.904419,401.997406 1230.906250,402.000000 1207.908203,402.000000 
	C1181.410400,401.999969 1154.912476,401.983215 1128.414673,402.031921 
	C1126.294312,402.035797 1124.089844,401.260834 1122.882812,404.609070 
	C1115.228882,425.839355 1107.231079,446.945343 1099.435425,468.125031 
	C1092.145142,487.931427 1085.050537,507.810120 1077.715210,527.599731 
	C1067.218994,555.916992 1056.645020,584.205872 1045.980835,612.460327 
	C1039.775024,628.903015 1033.250122,645.225159 1027.016357,661.657532 
	C1022.525269,673.495911 1018.277954,685.426819 1013.503357,697.997559 
z"/>
<path fill="#4C6971" opacity="1.000000" stroke="none" 
	d="
M413.000000,1221.000000 
	C413.000000,1174.261353 413.000000,1128.022583 413.000000,1081.783936 
	C413.510162,1081.663330 414.020325,1081.542725 414.530518,1081.422119 
	C415.445526,1082.206543 416.387665,1082.961792 417.268280,1083.782959 
	C418.242737,1084.691650 419.158112,1085.663696 420.104187,1086.603027 
	C466.428070,1132.596436 512.798340,1178.543213 559.061890,1224.597290 
	C593.595215,1258.974243 628.046265,1293.434204 662.425415,1327.965332 
	C680.614929,1346.235229 698.573242,1364.735229 716.632935,1383.134155 
	C717.298767,1383.812500 717.933838,1384.520996 719.316833,1386.000000 
	C716.860413,1386.000000 715.286804,1386.000000 713.713135,1386.000000 
	C656.549316,1386.000000 599.382019,1386.363037 542.223206,1385.827759 
	C518.139038,1385.602417 494.205750,1382.428345 472.096222,1371.865845 
	C455.996246,1364.174072 442.765808,1352.997314 433.624573,1337.269775 
	C423.627930,1320.070312 418.902222,1301.359619 415.862610,1281.897827 
	C412.726318,1261.816895 413.046783,1241.673096 413.000000,1221.000000 
z"/>
<path fill="#4C6971" opacity="1.000000" stroke="none" 
	d="
M1739.719482,713.204102 
	C1757.840698,733.506775 1772.804688,755.201782 1779.408936,781.781799 
	C1784.132202,800.791809 1781.429077,818.966309 1774.064087,836.783936 
	C1766.588623,854.869080 1755.558960,870.624268 1741.945068,884.445007 
	C1699.543335,927.491150 1656.877563,970.277283 1614.307617,1013.157410 
	C1613.629517,1013.840393 1612.865601,1014.438110 1610.985840,1016.093811 
	C1610.985840,871.819763 1610.985840,728.758118 1610.985840,584.800476 
	C1615.080322,588.401001 1618.658569,591.223938 1621.865967,594.419250 
	C1647.595093,620.051880 1673.212524,645.796570 1698.957520,671.413208 
	C1707.778320,680.190063 1717.007324,688.558594 1725.773315,697.388184 
	C1730.632324,702.282349 1734.919800,707.743958 1739.719482,713.204102 
z"/>
<path fill="#4C6971" opacity="1.000000" stroke="none" 
	d="
M279.742676,915.242981 
	C264.287689,898.648315 248.964996,882.357910 237.596786,862.976501 
	C229.072678,848.443909 222.650803,833.167236 220.851151,816.023071 
	C218.672424,795.267883 224.639862,776.812195 234.406052,759.044495 
	C245.061584,739.658875 259.853455,723.640930 275.338226,708.159302 
	C312.330811,671.174316 349.321777,634.187683 386.286774,597.175110 
	C387.558746,595.901489 388.546112,594.343628 389.666168,592.918335 
	C390.161560,593.132080 390.656952,593.345825 391.152344,593.559570 
	C391.152344,736.824036 391.152344,880.088562 391.152344,1024.944702 
	C353.342804,987.715271 316.669128,951.604309 279.742676,915.242981 
z"/>
<path fill="#4C6971" opacity="1.000000" stroke="none" 
	d="
M1378.750000,320.250000 
	C1346.844360,287.909698 1315.188721,255.819382 1283.111450,223.301605 
	C1284.901978,223.183441 1286.291870,223.011841 1287.681763,223.011505 
	C1345.501953,222.998108 1403.326782,222.581711 1461.140259,223.201263 
	C1485.023315,223.457214 1508.789307,226.740738 1530.672119,237.401718 
	C1546.264771,244.998199 1559.105347,255.974564 1568.039673,271.149963 
	C1578.200684,288.408661 1583.206543,307.217529 1586.152344,326.897980 
	C1588.885254,345.155762 1589.025024,363.437195 1589.010132,381.783752 
	C1588.977417,422.274536 1589.076294,462.765656 1588.935181,503.255981 
	C1588.907227,511.282806 1588.044434,519.306763 1587.515625,528.189880 
	C1517.728394,458.679077 1448.364258,389.589539 1378.750000,320.250000 
z"/>
<path fill="#FFFFFF" opacity="1.000000" stroke="none" 
	d="
M1013.712646,697.656982 
	C1018.277954,685.426819 1022.525269,673.495911 1027.016357,661.657532 
	C1033.250122,645.225159 1039.775024,628.903015 1045.980835,612.460327 
	C1056.645020,584.205872 1067.218994,555.916992 1077.715210,527.599731 
	C1085.050537,507.810120 1092.145142,487.931427 1099.435425,468.125031 
	C1107.231079,446.945343 1115.228882,425.839355 1122.882812,404.609070 
	C1124.089844,401.260834 1126.294312,402.035797 1128.414673,402.031921 
	C1154.912476,401.983215 1181.410400,401.999969 1207.908203,402.000000 
	C1230.906250,402.000000 1253.904419,401.997406 1276.902466,402.007233 
	C1278.169800,402.007751 1279.437134,402.111694 1280.930542,402.177429 
	C1275.811646,410.692871 1270.508911,418.649872 1266.083008,427.067902 
	C1258.420532,441.642365 1250.723145,456.247589 1244.088501,471.301849 
	C1233.869263,494.489410 1224.468872,518.039917 1214.846191,541.487793 
	C1207.136841,560.273193 1199.586182,579.123962 1192.014404,597.965576 
	C1183.959717,618.008545 1176.033203,638.103271 1167.923828,658.123962 
	C1157.738037,683.271362 1147.658081,708.465637 1137.105591,733.459351 
	C1123.509277,765.661743 1109.655396,797.758118 1095.595703,829.761047 
	C1086.037354,851.517761 1076.257690,873.189941 1066.005615,894.626587 
	C1047.912720,932.458191 1029.864258,970.325439 1010.866333,1007.704651 
	C998.472839,1032.089478 984.774780,1055.835938 971.024292,1079.498169 
	C960.560242,1097.505005 949.636047,1115.298828 937.912842,1132.503418 
	C927.444885,1147.865845 916.081909,1162.689453 904.209656,1177.000732 
	C895.262451,1187.786011 884.886047,1197.385864 875.469482,1207.176636 
	C827.694214,1190.551514 780.957397,1174.287720 733.563232,1157.795166 
	C740.437744,1152.230225 746.797607,1147.142700 753.089905,1141.973022 
	C761.709106,1134.891602 770.493713,1127.990234 778.806641,1120.563110 
	C787.339539,1112.939331 795.993042,1105.305054 803.517151,1096.730591 
	C816.379761,1082.072266 828.987061,1067.112427 840.632263,1051.482422 
	C855.736206,1031.210083 868.663757,1009.436584 879.614502,986.641846 
	C889.888184,965.256348 899.389587,943.495850 909.020752,921.807068 
	C914.495361,909.478821 919.582031,896.977478 924.777649,884.526611 
	C927.469299,878.076355 927.504333,872.150391 924.298279,865.299255 
	C914.654663,844.691895 906.020813,823.613342 896.918030,802.751282 
	C890.607422,788.288574 884.138184,773.895142 877.801147,759.443848 
	C867.417542,735.764648 857.142944,712.037537 846.709778,688.380249 
	C838.634399,670.069397 830.290894,651.876526 822.239563,633.555237 
	C811.969727,610.185486 801.937744,586.711121 791.682434,563.334900 
	C783.904358,545.605347 775.840149,528.001343 768.077698,510.265045 
	C756.865479,484.646698 745.852783,458.941040 734.669006,433.310181 
	C730.195618,423.058197 725.493469,412.906036 720.575989,402.000000 
	C722.883728,402.000000 724.477600,402.000000 726.071533,402.000000 
	C773.734314,402.000000 821.397339,402.065399 869.059387,401.878754 
	C872.973938,401.863434 874.628967,403.486938 875.848206,406.560516 
	C889.382141,440.679199 902.958557,474.781097 916.438171,508.921234 
	C930.035950,543.360840 943.459106,577.869568 957.105225,612.289856 
	C969.078918,642.491699 981.275208,672.605164 993.328857,702.775391 
	C996.398132,710.457642 999.299072,718.207153 1002.850647,727.411255 
	C1006.703796,716.772156 1010.103577,707.384888 1013.712646,697.656982 
z"/>
</svg>