<?xml version="1.0" standalone="no"?>
<!DOCTYPE svg PUBLIC "-//W3C//DTD SVG 20010904//EN"
 "http://www.w3.org/TR/2001/REC-SVG-20010904/DTD/svg10.dtd">
<svg version="1.0" xmlns="http://www.w3.org/2000/svg"
 width="1000.000000pt" height="803.000000pt" viewBox="0 0 1000.000000 803.000000"
 preserveAspectRatio="xMidYMid meet">

<g transform="translate(0.000000,803.000000) scale(0.100000,-0.100000)"
fill="#000000" stroke="none">
<path d="M4889 8015 c-31 -8 -81 -25 -113 -39 -127 -56 -202 -122 -621 -538
l-410 -407 -610 -3 c-594 -4 -612 -4 -690 -26 -283 -79 -432 -258 -480 -580
-12 -76 -15 -215 -15 -641 l0 -545 -388 -390 c-214 -215 -409 -420 -435 -456
-59 -85 -113 -198 -128 -269 -7 -32 -9 -98 -6 -156 6 -121 34 -204 110 -322
81 -126 161 -213 517 -561 l330 -324 0 -526 c0 -411 3 -548 15 -624 48 -322
197 -501 480 -580 78 -22 96 -22 670 -25 l590 -3 380 -383 c209 -211 414 -408
455 -439 245 -183 461 -222 684 -124 127 56 203 122 621 538 l410 407 610 3
c594 4 612 4 690 26 263 73 404 226 471 513 15 65 18 147 21 664 l4 590 388
390 c213 215 408 419 433 455 108 153 142 261 136 420 -6 128 -36 213 -120
341 -81 124 -162 210 -517 557 l-321 314 0 526 c0 411 -3 548 -15 624 -48 322
-197 501 -480 580 -78 22 -96 22 -670 25 l-590 3 -380 383 c-389 393 -483 476
-617 543 -135 68 -283 89 -409 59z m230 -110 c92 -22 206 -85 312 -174 52 -43
231 -217 399 -387 l305 -309 -249 -3 c-164 -1 -254 -6 -263 -13 -21 -18 -16
-66 9 -83 19 -14 67 -16 318 -16 l295 0 844 -844 844 -844 0 -1197 0 -1197
-222 -222 c-231 -232 -245 -251 -205 -290 33 -34 54 -19 246 171 l188 187 0
-479 c0 -372 -3 -502 -15 -578 -42 -281 -156 -424 -392 -489 -75 -21 -99 -22
-623 -26 l-545 -3 153 154 c93 94 152 161 152 173 0 32 -24 57 -54 57 -23 0
-63 -35 -220 -192 l-191 -191 -297 0 c-325 0 -328 -1 -328 -59 0 -50 6 -51
270 -51 l245 0 -370 -368 c-265 -264 -391 -382 -444 -417 -237 -155 -438 -134
-701 74 -44 35 -223 208 -397 385 l-316 321 241 3 c241 2 242 2 257 26 18 27
7 69 -20 80 -9 3 -146 6 -303 6 l-287 0 -845 845 -845 845 1 1196 1 1196 208
208 c171 171 207 213 208 236 0 30 -25 54 -57 54 -12 0 -85 -65 -193 -172
l-174 -173 3 530 4 530 27 98 c33 123 67 187 137 258 63 64 124 98 232 131 71
21 88 22 623 25 l550 4 -157 -158 c-125 -126 -158 -164 -158 -185 0 -28 31
-58 59 -58 8 0 105 90 216 200 l201 200 270 0 c297 0 314 3 314 59 0 50 -7 51
-249 51 l-226 0 350 351 c193 192 379 373 415 400 158 120 299 159 449 124z
m2414 -1013 c236 -66 350 -208 392 -491 12 -79 15 -192 13 -555 l-3 -455 -480
473 c-264 260 -608 605 -764 765 l-284 292 524 -3 c503 -4 527 -5 602 -26z
m912 -2163 c182 -185 299 -312 334 -363 170 -249 162 -462 -27 -697 -33 -41
-204 -217 -379 -392 l-320 -319 -6 228 c-9 293 -9 1370 0 1682 l6 241 56 -48
c31 -27 182 -177 336 -332z m-6488 -719 c0 -393 -2 -800 -6 -905 l-6 -190
-336 335 c-352 352 -412 423 -473 564 -29 66 -31 79 -31 186 0 112 1 117 38
194 20 43 54 102 74 130 20 28 192 208 382 399 l346 348 6 -173 c4 -95 7 -495
6 -888z m756 -2010 c175 -173 445 -445 599 -603 l282 -288 -525 3 c-503 4
-527 5 -602 26 -236 65 -350 208 -392 489 -11 76 -15 203 -15 558 l0 460 168
-165 c92 -91 310 -307 485 -480z"/>
<path d="M3610 6015 c0 -3 232 -534 516 -1180 l515 -1174 -82 -198 c-224 -542
-422 -831 -754 -1103 -69 -56 -123 -105 -120 -110 2 -4 158 -60 345 -125 l341
-118 55 54 c206 202 454 595 736 1169 274 558 446 958 900 2095 134 336 232
545 316 673 l14 22 -388 0 -389 0 -299 -810 c-165 -446 -302 -810 -305 -810
-3 0 -150 365 -326 810 l-320 810 -377 0 c-208 0 -378 -2 -378 -5z"/>
</g>
</svg>
